FFmpeg Befehl: C:\Users\ThiloBrosinsky\AppData\Local\Microsoft\WinGet\Packages\Gyan.FFmpeg_Microsoft.Winget.Source_8wekyb3d8bbwe\ffmpeg-8.0.1-full_build\bin\ffmpeg.exe -y -f gdigrab -framerate 30 -i title="Peakboard Runtime" -t 60 -c:v libx264 -preset fast -pix_fmt yuv420p "C:\Source\Blog\assets\2026-03-04-17-36-38\bg_clip.mp4"
Window Title: Peakboard Runtime
Start: 2026-03-04T17:36:50.2514225+01:00

Exit Code: 0
Exited normally: True

STDERR:
ffmpeg version 8.0.1-full_build-www.gyan.dev Copyright (c) 2000-2025 the FFmpeg developers
  built with gcc 15.2.0 (Rev8, Built by MSYS2 project)
  configuration: --enable-gpl --enable-version3 --enable-static --disable-w32threads --disable-autodetect --enable-fontconfig --enable-iconv --enable-gnutls --enable-lcms2 --enable-libxml2 --enable-gmp --enable-bzlib --enable-lzma --enable-libsnappy --enable-zlib --enable-librist --enable-libsrt --enable-libssh --enable-libzmq --enable-avisynth --enable-libbluray --enable-libcaca --enable-libdvdnav --enable-libdvdread --enable-sdl2 --enable-libaribb24 --enable-libaribcaption --enable-libdav1d --enable-libdavs2 --enable-libopenjpeg --enable-libquirc --enable-libuavs3d --enable-libxevd --enable-libzvbi --enable-liboapv --enable-libqrencode --enable-librav1e --enable-libsvtav1 --enable-libvvenc --enable-libwebp --enable-libx264 --enable-libx265 --enable-libxavs2 --enable-libxeve --enable-libxvid --enable-libaom --enable-libjxl --enable-libvpx --enable-mediafoundation --enable-libass --enable-frei0r --enable-libfreetype --enable-libfribidi --enable-libharfbuzz --enable-liblensfun --enable-libvidstab --enable-libvmaf --enable-libzimg --enable-amf --enable-cuda-llvm --enable-cuvid --enable-dxva2 --enable-d3d11va --enable-d3d12va --enable-ffnvcodec --enable-libvpl --enable-nvdec --enable-nvenc --enable-vaapi --enable-libshaderc --enable-vulkan --enable-libplacebo --enable-opencl --enable-libcdio --enable-openal --enable-libgme --enable-libmodplug --enable-libopenmpt --enable-libopencore-amrwb --enable-libmp3lame --enable-libshine --enable-libtheora --enable-libtwolame --enable-libvo-amrwbenc --enable-libcodec2 --enable-libilbc --enable-libgsm --enable-liblc3 --enable-libopencore-amrnb --enable-libopus --enable-libspeex --enable-libvorbis --enable-ladspa --enable-libbs2b --enable-libflite --enable-libmysofa --enable-librubberband --enable-libsoxr --enable-chromaprint --enable-whisper
  libavutil      60.  8.100 / 60.  8.100
  libavcodec     62. 11.100 / 62. 11.100
  libavformat    62.  3.100 / 62.  3.100
  libavdevice    62.  1.100 / 62.  1.100
  libavfilter    11.  4.100 / 11.  4.100
  libswscale      9.  1.100 /  9.  1.100
  libswresample   6.  1.100 /  6.  1.100
[gdigrab @ 000001a754095a40] Found window Peakboard Runtime, capturing 1920x1080x32 at (0,0)
[gdigrab @ 000001a754095a40] Stream #0: not enough frames to estimate rate; consider increasing probesize
Input #0, gdigrab, from 'title=Peakboard Runtime':
  Duration: N/A, start: 1772642210.337728, bitrate: 1990668 kb/s
  Stream #0:0: Video: bmp, bgra, 1920x1080, 1990668 kb/s, 30 fps, 1000k tbr, 1000k tbn, start 1772642210.337728
Stream mapping:
  Stream #0:0 -> #0:0 (bmp (native) -> h264 (libx264))
Press [q] to stop, [?] for help
[libx264 @ 000001a75409c080] using cpu capabilities: MMX2 SSE2Fast SSSE3 SSE4.2 AVX FMA3 BMI2 AVX2 AVX512
[libx264 @ 000001a75409c080] profile High, level 4.0, 4:2:0, 8-bit
[libx264 @ 000001a75409c080] 264 - core 165 r3223 0480cb0 - H.264/MPEG-4 AVC codec - Copyleft 2003-2025 - http://www.videolan.org/x264.html - options: cabac=1 ref=2 deblock=1:0:0 analyse=0x3:0x113 me=hex subme=6 psy=1 psy_rd=1.00:0.00 mixed_ref=1 me_range=16 chroma_me=1 trellis=1 8x8dct=1 cqm=0 deadzone=21,11 fast_pskip=1 chroma_qp_offset=-2 threads=24 lookahead_threads=4 sliced_threads=0 nr=0 decimate=1 interlaced=0 bluray_compat=0 constrained_intra=0 bframes=3 b_pyramid=2 b_adapt=1 b_bias=0 direct=1 weightb=1 open_gop=0 weightp=1 keyint=250 keyint_min=25 scenecut=40 intra_refresh=0 rc_lookahead=30 rc=crf mbtree=1 crf=23.0 qcomp=0.60 qpmin=0 qpmax=69 qpstep=4 ip_ratio=1.40 aq=1:1.00
Output #0, mp4, to 'C:\Source\Blog\assets\2026-03-04-17-36-38\bg_clip.mp4':
  Metadata:
    encoder         : Lavf62.3.100
  Stream #0:0: Video: h264 (avc1 / 0x31637661), yuv420p(tv, progressive), 1920x1080, q=2-31, 30 fps, 15360 tbn
    Metadata:
      encoder         : Lavc62.11.100 libx264
    Side data:
      cpb: bitrate max/min/avg: 0/0/0 buffer size: 0 vbv_delay: N/A
frame=    0 fps=0.0 q=0.0 size=       0KiB time=N/A bitrate=N/A speed=N/A elapsed=0:00:00.51    frame=    0 fps=0.0 q=0.0 size=       0KiB time=N/A bitrate=N/A speed=N/A elapsed=0:00:01.03    frame=    0 fps=0.0 q=0.0 size=       0KiB time=N/A bitrate=N/A speed=N/A elapsed=0:00:01.54    frame=    4 fps=1.9 q=29.0 size=       0KiB time=00:00:00.03 bitrate=  11.5kbits/s speed=0.0162x elapsed=0:00:02.05    frame=   20 fps=7.8 q=29.0 size=       0KiB time=00:00:00.56 bitrate=   0.7kbits/s speed=0.22x elapsed=0:00:02.57    frame=   35 fps= 11 q=29.0 size=       0KiB time=00:00:01.06 bitrate=   0.4kbits/s speed=0.345x elapsed=0:00:03.09    frame=   51 fps= 14 q=29.0 size=       0KiB time=00:00:01.60 bitrate=   0.2kbits/s speed=0.444x elapsed=0:00:03.60    frame=   66 fps= 16 q=29.0 size=       0KiB time=00:00:02.10 bitrate=   0.2kbits/s speed=0.51x elapsed=0:00:04.12    frame=   81 fps= 17 q=29.0 size=       0KiB time=00:00:02.60 bitrate=   0.1kbits/s speed=0.561x elapsed=0:00:04.63    frame=   97 fps= 19 q=29.0 size=       0KiB time=00:00:03.13 bitrate=   0.1kbits/s speed=0.609x elapsed=0:00:05.14    frame=  112 fps= 20 q=29.0 size=       0KiB time=00:00:03.63 bitrate=   0.1kbits/s speed=0.641x elapsed=0:00:05.66    frame=  128 fps= 21 q=29.0 size=       0KiB time=00:00:04.16 bitrate=   0.1kbits/s speed=0.674x elapsed=0:00:06.18    frame=  143 fps= 21 q=29.0 size=       0KiB time=00:00:04.66 bitrate=   0.1kbits/s speed=0.697x elapsed=0:00:06.69    frame=  158 fps= 22 q=29.0 size=       0KiB time=00:00:05.16 bitrate=   0.1kbits/s dup=0 drop=1 speed=0.715x elapsed=0:00:07.22    frame=  173 fps= 22 q=29.0 size=       0KiB time=00:00:05.66 bitrate=   0.1kbits/s dup=0 drop=1 speed=0.734x elapsed=0:00:07.72    frame=  189 fps= 23 q=29.0 size=       0KiB time=00:00:06.20 bitrate=   0.1kbits/s dup=0 drop=1 speed=0.752x elapsed=0:00:08.24    frame=  204 fps= 23 q=29.0 size=       0KiB time=00:00:06.70 bitrate=   0.1kbits/s dup=0 drop=1 speed=0.765x elapsed=0:00:08.75    frame=  220 fps= 24 q=29.0 size=       0KiB time=00:00:07.26 bitrate=   0.1kbits/s dup=0 drop=1 speed=0.784x elapsed=0:00:09.27    frame=  235 fps= 24 q=29.0 size=       0KiB time=00:00:07.76 bitrate=   0.0kbits/s dup=0 drop=1 speed=0.793x elapsed=0:00:09.79    frame=  251 fps= 24 q=29.0 size=       0KiB time=00:00:08.30 bitrate=   0.0kbits/s dup=0 drop=1 speed=0.806x elapsed=0:00:10.30    frame=  266 fps= 25 q=29.0 size=     256KiB time=00:00:08.80 bitrate= 238.4kbits/s dup=0 drop=1 speed=0.813x elapsed=0:00:10.82    frame=  282 fps= 25 q=29.0 size=     256KiB time=00:00:09.33 bitrate= 224.7kbits/s dup=0 drop=1 speed=0.823x elapsed=0:00:11.34    frame=  297 fps= 25 q=29.0 size=     256KiB time=00:00:09.83 bitrate= 213.3kbits/s dup=0 drop=1 speed=0.829x elapsed=0:00:11.85    frame=  313 fps= 25 q=29.0 size=     256KiB time=00:00:10.36 bitrate= 202.3kbits/s dup=0 drop=1 speed=0.838x elapsed=0:00:12.37    frame=  328 fps= 25 q=29.0 size=     256KiB time=00:00:10.86 bitrate= 193.0kbits/s dup=0 drop=1 speed=0.843x elapsed=0:00:12.88    frame=  343 fps= 26 q=29.0 size=     256KiB time=00:00:11.36 bitrate= 184.5kbits/s dup=0 drop=1 speed=0.848x elapsed=0:00:13.40    frame=  359 fps= 26 q=29.0 size=     256KiB time=00:00:11.90 bitrate= 176.3kbits/s dup=0 drop=1 speed=0.855x elapsed=0:00:13.91    frame=  374 fps= 26 q=29.0 size=     256KiB time=00:00:12.40 bitrate= 169.2kbits/s dup=0 drop=1 speed=0.859x elapsed=0:00:14.43    frame=  390 fps= 26 q=29.0 size=     256KiB time=00:00:12.93 bitrate= 162.2kbits/s dup=0 drop=1 speed=0.865x elapsed=0:00:14.94    frame=  405 fps= 26 q=29.0 size=     256KiB time=00:00:13.43 bitrate= 156.1kbits/s dup=0 drop=1 speed=0.869x elapsed=0:00:15.45    frame=  420 fps= 26 q=29.0 size=     256KiB time=00:00:13.93 bitrate= 150.5kbits/s dup=0 drop=2 speed=0.872x elapsed=0:00:15.97    frame=  435 fps= 26 q=29.0 size=     256KiB time=00:00:14.43 bitrate= 145.3kbits/s dup=0 drop=2 speed=0.875x elapsed=0:00:16.50    frame=  451 fps= 27 q=29.0 size=     256KiB time=00:00:14.96 bitrate= 140.1kbits/s dup=0 drop=2 speed=0.88x elapsed=0:00:17.00    frame=  465 fps= 27 q=29.0 size=     256KiB time=00:00:15.43 bitrate= 135.9kbits/s dup=0 drop=3 speed=0.88x elapsed=0:00:17.53    frame=  481 fps= 27 q=29.0 size=     256KiB time=00:00:16.00 bitrate= 131.1kbits/s dup=0 drop=3 speed=0.886x elapsed=0:00:18.04    frame=  496 fps= 27 q=29.0 size=     256KiB time=00:00:16.50 bitrate= 127.1kbits/s dup=0 drop=3 speed=0.889x elapsed=0:00:18.56    frame=  512 fps= 27 q=29.0 size=     256KiB time=00:00:17.03 bitrate= 123.1kbits/s dup=0 drop=3 speed=0.893x elapsed=0:00:19.07    frame=  527 fps= 27 q=29.0 size=     256KiB time=00:00:17.56 bitrate= 119.4kbits/s dup=0 drop=3 speed=0.897x elapsed=0:00:19.59    frame=  543 fps= 27 q=29.0 size=     256KiB time=00:00:18.10 bitrate= 115.9kbits/s dup=0 drop=3 speed= 0.9x elapsed=0:00:20.10    frame=  558 fps= 27 q=29.0 size=     256KiB time=00:00:18.60 bitrate= 112.8kbits/s dup=0 drop=3 speed=0.902x elapsed=0:00:20.62    frame=  573 fps= 27 q=29.0 size=     256KiB time=00:00:19.10 bitrate= 109.8kbits/s dup=0 drop=3 speed=0.904x elapsed=0:00:21.13    frame=  589 fps= 27 q=29.0 size=     256KiB time=00:00:19.63 bitrate= 106.8kbits/s dup=0 drop=3 speed=0.907x elapsed=0:00:21.64    frame=  604 fps= 27 q=29.0 size=     256KiB time=00:00:20.13 bitrate= 104.2kbits/s dup=0 drop=3 speed=0.908x elapsed=0:00:22.16    frame=  620 fps= 27 q=29.0 size=     256KiB time=00:00:20.66 bitrate= 101.5kbits/s dup=0 drop=3 speed=0.911x elapsed=0:00:22.69    frame=  634 fps= 27 q=29.0 size=     256KiB time=00:00:21.13 bitrate=  99.3kbits/s dup=0 drop=4 speed=0.911x elapsed=0:00:23.20    frame=  650 fps= 27 q=29.0 size=     256KiB time=00:00:21.66 bitrate=  96.8kbits/s dup=0 drop=5 speed=0.913x elapsed=0:00:23.73    frame=  665 fps= 27 q=29.0 size=     256KiB time=00:00:22.16 bitrate=  94.6kbits/s dup=0 drop=5 speed=0.914x elapsed=0:00:24.25    frame=  680 fps= 27 q=29.0 size=     512KiB time=00:00:22.66 bitrate= 185.1kbits/s dup=0 drop=5 speed=0.915x elapsed=0:00:24.76    frame=  696 fps= 28 q=29.0 size=     512KiB time=00:00:23.26 bitrate= 180.3kbits/s dup=0 drop=5 speed=0.92x elapsed=0:00:25.28    frame=  711 fps= 28 q=29.0 size=     512KiB time=00:00:23.76 bitrate= 176.5kbits/s dup=0 drop=5 speed=0.921x elapsed=0:00:25.79    frame=  727 fps= 28 q=29.0 size=     512KiB time=00:00:24.30 bitrate= 172.6kbits/s dup=0 drop=5 speed=0.923x elapsed=0:00:26.31    frame=  742 fps= 28 q=29.0 size=     512KiB time=00:00:24.80 bitrate= 169.1kbits/s dup=0 drop=5 speed=0.924x elapsed=0:00:26.82    frame=  758 fps= 28 q=29.0 size=     512KiB time=00:00:25.33 bitrate= 165.6kbits/s dup=0 drop=5 speed=0.927x elapsed=0:00:27.34    frame=  773 fps= 28 q=29.0 size=     512KiB time=00:00:25.83 bitrate= 162.4kbits/s dup=0 drop=5 speed=0.927x elapsed=0:00:27.85    frame=  789 fps= 28 q=29.0 size=     512KiB time=00:00:26.36 bitrate= 159.1kbits/s dup=0 drop=5 speed=0.929x elapsed=0:00:28.37    frame=  804 fps= 28 q=29.0 size=     512KiB time=00:00:26.86 bitrate= 156.1kbits/s dup=0 drop=5 speed=0.93x elapsed=0:00:28.88    frame=  819 fps= 28 q=29.0 size=     512KiB time=00:00:27.36 bitrate= 153.3kbits/s dup=0 drop=5 speed=0.931x elapsed=0:00:29.40    frame=  835 fps= 28 q=29.0 size=     512KiB time=00:00:27.90 bitrate= 150.3kbits/s dup=0 drop=5 speed=0.933x elapsed=0:00:29.91    frame=  850 fps= 28 q=29.0 size=     512KiB time=00:00:28.40 bitrate= 147.7kbits/s dup=0 drop=5 speed=0.933x elapsed=0:00:30.42    frame=  866 fps= 28 q=29.0 size=     512KiB time=00:00:28.93 bitrate= 145.0kbits/s dup=0 drop=5 speed=0.935x elapsed=0:00:30.94    frame=  881 fps= 28 q=29.0 size=     512KiB time=00:00:29.43 bitrate= 142.5kbits/s dup=0 drop=5 speed=0.936x elapsed=0:00:31.45    frame=  897 fps= 28 q=29.0 size=     512KiB time=00:00:29.96 bitrate= 140.0kbits/s dup=0 drop=5 speed=0.937x elapsed=0:00:31.97    frame=  913 fps= 28 q=29.0 size=     512KiB time=00:00:30.50 bitrate= 137.5kbits/s dup=0 drop=5 speed=0.938x elapsed=0:00:32.50    frame=  928 fps= 28 q=29.0 size=     512KiB time=00:00:31.00 bitrate= 135.3kbits/s dup=0 drop=5 speed=0.939x elapsed=0:00:33.01    frame=  943 fps= 28 q=29.0 size=     512KiB time=00:00:31.50 bitrate= 133.2kbits/s dup=0 drop=5 speed=0.939x elapsed=0:00:33.52    frame=  959 fps= 28 q=29.0 size=     512KiB time=00:00:32.03 bitrate= 130.9kbits/s dup=0 drop=5 speed=0.941x elapsed=0:00:34.04    frame=  974 fps= 28 q=29.0 size=     512KiB time=00:00:32.53 bitrate= 128.9kbits/s dup=0 drop=5 speed=0.941x elapsed=0:00:34.56    frame=  990 fps= 28 q=29.0 size=     512KiB time=00:00:33.06 bitrate= 126.9kbits/s dup=0 drop=5 speed=0.943x elapsed=0:00:35.07    frame= 1005 fps= 28 q=29.0 size=     768KiB time=00:00:33.56 bitrate= 187.4kbits/s dup=0 drop=5 speed=0.943x elapsed=0:00:35.59    frame= 1021 fps= 28 q=29.0 size=     768KiB time=00:00:34.10 bitrate= 184.5kbits/s dup=0 drop=5 speed=0.944x elapsed=0:00:36.11    frame= 1036 fps= 28 q=29.0 size=     768KiB time=00:00:34.60 bitrate= 181.8kbits/s dup=0 drop=5 speed=0.945x elapsed=0:00:36.61    frame= 1051 fps= 28 q=29.0 size=     768KiB time=00:00:35.10 bitrate= 179.3kbits/s dup=0 drop=5 speed=0.945x elapsed=0:00:37.13    frame= 1067 fps= 28 q=29.0 size=     768KiB time=00:00:35.63 bitrate= 176.6kbits/s dup=0 drop=5 speed=0.946x elapsed=0:00:37.66    frame= 1082 fps= 28 q=29.0 size=     768KiB time=00:00:36.13 bitrate= 174.1kbits/s dup=0 drop=6 speed=0.947x elapsed=0:00:38.17    frame= 1097 fps= 28 q=29.0 size=     768KiB time=00:00:36.63 bitrate= 171.8kbits/s dup=0 drop=6 speed=0.947x elapsed=0:00:38.69    frame= 1112 fps= 28 q=29.0 size=     768KiB time=00:00:37.13 bitrate= 169.4kbits/s dup=0 drop=7 speed=0.947x elapsed=0:00:39.20    frame= 1127 fps= 28 q=29.0 size=     768KiB time=00:00:37.66 bitrate= 167.0kbits/s dup=0 drop=7 speed=0.948x elapsed=0:00:39.72    frame= 1142 fps= 28 q=29.0 size=     768KiB time=00:00:38.16 bitrate= 164.9kbits/s dup=0 drop=7 speed=0.949x elapsed=0:00:40.23    frame= 1158 fps= 28 q=29.0 size=     768KiB time=00:00:38.73 bitrate= 162.4kbits/s dup=0 drop=7 speed=0.95x elapsed=0:00:40.75    frame= 1173 fps= 28 q=29.0 size=     768KiB time=00:00:39.23 bitrate= 160.4kbits/s dup=0 drop=7 speed=0.951x elapsed=0:00:41.26    frame= 1189 fps= 28 q=29.0 size=     768KiB time=00:00:39.76 bitrate= 158.2kbits/s dup=0 drop=7 speed=0.952x elapsed=0:00:41.78    frame= 1204 fps= 28 q=29.0 size=     768KiB time=00:00:40.26 bitrate= 156.3kbits/s dup=0 drop=7 speed=0.952x elapsed=0:00:42.29    frame= 1220 fps= 28 q=29.0 size=     768KiB time=00:00:40.80 bitrate= 154.2kbits/s dup=0 drop=7 speed=0.953x elapsed=0:00:42.81    frame= 1235 fps= 29 q=29.0 size=     768KiB time=00:00:41.30 bitrate= 152.3kbits/s dup=0 drop=7 speed=0.953x elapsed=0:00:43.32    frame= 1251 fps= 29 q=29.0 size=     768KiB time=00:00:41.83 bitrate= 150.4kbits/s dup=0 drop=7 speed=0.954x elapsed=0:00:43.84    frame= 1266 fps= 29 q=29.0 size=     768KiB time=00:00:42.33 bitrate= 148.6kbits/s dup=0 drop=7 speed=0.954x elapsed=0:00:44.35    frame= 1282 fps= 29 q=29.0 size=     768KiB time=00:00:42.86 bitrate= 146.8kbits/s dup=0 drop=7 speed=0.955x elapsed=0:00:44.87    frame= 1297 fps= 29 q=29.0 size=     768KiB time=00:00:43.36 bitrate= 145.1kbits/s dup=0 drop=7 speed=0.955x elapsed=0:00:45.38    frame= 1312 fps= 29 q=29.0 size=     768KiB time=00:00:43.86 bitrate= 143.4kbits/s dup=0 drop=7 speed=0.956x elapsed=0:00:45.90    frame= 1328 fps= 29 q=29.0 size=     768KiB time=00:00:44.40 bitrate= 141.7kbits/s dup=0 drop=7 speed=0.957x elapsed=0:00:46.41    frame= 1343 fps= 29 q=29.0 size=     768KiB time=00:00:44.90 bitrate= 140.1kbits/s dup=0 drop=7 speed=0.957x elapsed=0:00:46.92    frame= 1359 fps= 29 q=29.0 size=     768KiB time=00:00:45.43 bitrate= 138.5kbits/s dup=0 drop=7 speed=0.958x elapsed=0:00:47.44    frame= 1374 fps= 29 q=29.0 size=     768KiB time=00:00:45.93 bitrate= 137.0kbits/s dup=0 drop=7 speed=0.958x elapsed=0:00:47.96    frame= 1390 fps= 29 q=29.0 size=    1024KiB time=00:00:46.46 bitrate= 180.5kbits/s dup=0 drop=7 speed=0.958x elapsed=0:00:48.48    frame= 1406 fps= 29 q=29.0 size=    1024KiB time=00:00:47.00 bitrate= 178.5kbits/s dup=0 drop=7 speed=0.959x elapsed=0:00:49.00    frame= 1421 fps= 29 q=29.0 size=    1024KiB time=00:00:47.50 bitrate= 176.6kbits/s dup=0 drop=7 speed=0.959x elapsed=0:00:49.50    frame= 1436 fps= 29 q=29.0 size=    1024KiB time=00:00:48.00 bitrate= 174.8kbits/s dup=0 drop=7 speed=0.96x elapsed=0:00:50.02    frame= 1452 fps= 29 q=29.0 size=    1024KiB time=00:00:48.53 bitrate= 172.9kbits/s dup=0 drop=7 speed=0.96x elapsed=0:00:50.55    frame= 1466 fps= 29 q=29.0 size=    1024KiB time=00:00:49.00 bitrate= 171.2kbits/s dup=0 drop=8 speed=0.96x elapsed=0:00:51.06    frame= 1482 fps= 29 q=29.0 size=    1024KiB time=00:00:49.53 bitrate= 169.4kbits/s dup=0 drop=8 speed=0.96x elapsed=0:00:51.58    frame= 1497 fps= 29 q=29.0 size=    1024KiB time=00:00:50.03 bitrate= 167.7kbits/s dup=0 drop=8 speed=0.96x elapsed=0:00:52.09    frame= 1513 fps= 29 q=29.0 size=    1024KiB time=00:00:50.56 bitrate= 165.9kbits/s dup=0 drop=8 speed=0.961x elapsed=0:00:52.60    frame= 1528 fps= 29 q=29.0 size=    1024KiB time=00:00:51.10 bitrate= 164.2kbits/s dup=0 drop=8 speed=0.962x elapsed=0:00:53.12    frame= 1544 fps= 29 q=29.0 size=    1024KiB time=00:00:51.63 bitrate= 162.5kbits/s dup=0 drop=8 speed=0.963x elapsed=0:00:53.63    frame= 1559 fps= 29 q=29.0 size=    1024KiB time=00:00:52.13 bitrate= 160.9kbits/s dup=0 drop=8 speed=0.963x elapsed=0:00:54.15    frame= 1574 fps= 29 q=29.0 size=    1024KiB time=00:00:52.63 bitrate= 159.4kbits/s dup=0 drop=8 speed=0.963x elapsed=0:00:54.66    frame= 1590 fps= 29 q=29.0 size=    1024KiB time=00:00:53.16 bitrate= 157.8kbits/s dup=0 drop=8 speed=0.964x elapsed=0:00:55.17    frame= 1605 fps= 29 q=29.0 size=    1024KiB time=00:00:53.66 bitrate= 156.3kbits/s dup=0 drop=8 speed=0.964x elapsed=0:00:55.69    frame= 1621 fps= 29 q=29.0 size=    1024KiB time=00:00:54.20 bitrate= 154.8kbits/s dup=0 drop=8 speed=0.964x elapsed=0:00:56.21    frame= 1636 fps= 29 q=29.0 size=    1024KiB time=00:00:54.70 bitrate= 153.4kbits/s dup=0 drop=8 speed=0.964x elapsed=0:00:56.72    frame= 1652 fps= 29 q=29.0 size=    1024KiB time=00:00:55.23 bitrate= 151.9kbits/s dup=0 drop=8 speed=0.965x elapsed=0:00:57.24    frame= 1667 fps= 29 q=29.0 size=    1024KiB time=00:00:55.73 bitrate= 150.5kbits/s dup=0 drop=8 speed=0.965x elapsed=0:00:57.75    frame= 1683 fps= 29 q=29.0 size=    1024KiB time=00:00:56.26 bitrate= 149.1kbits/s dup=0 drop=8 speed=0.966x elapsed=0:00:58.27    frame= 1698 fps= 29 q=29.0 size=    1024KiB time=00:00:56.76 bitrate= 147.8kbits/s dup=0 drop=8 speed=0.966x elapsed=0:00:58.78    frame= 1713 fps= 29 q=29.0 size=    1024KiB time=00:00:57.26 bitrate= 146.5kbits/s dup=0 drop=8 speed=0.966x elapsed=0:00:59.30    frame= 1729 fps= 29 q=29.0 size=    1024KiB time=00:00:57.80 bitrate= 145.1kbits/s dup=0 drop=8 speed=0.966x elapsed=0:00:59.81    [out#0/mp4 @ 000001a754099f00] video:1328KiB audio:0KiB subtitle:0KiB other streams:0KiB global headers:0KiB muxing overhead: 1.636934%
frame= 1792 fps= 30 q=-1.0 Lsize=    1350KiB time=00:00:59.90 bitrate= 184.6kbits/s dup=0 drop=8 speed=0.997x elapsed=0:01:00.07    
[libx264 @ 000001a75409c080] frame I:8     Avg QP:15.04  size: 76062
[libx264 @ 000001a75409c080] frame P:483   Avg QP:16.62  size:  1242
[libx264 @ 000001a75409c080] frame B:1301  Avg QP:17.07  size:   116
[libx264 @ 000001a75409c080] consecutive B-frames:  2.1%  1.9%  4.5% 91.5%
[libx264 @ 000001a75409c080] mb I  I16..4: 55.1% 30.3% 14.6%
[libx264 @ 000001a75409c080] mb P  I16..4:  1.1%  0.4%  0.2%  P16..4:  0.5%  0.2%  0.0%  0.0%  0.0%    skip:97.5%
[libx264 @ 000001a75409c080] mb B  I16..4:  0.0%  0.0%  0.0%  B16..8:  0.3%  0.0%  0.0%  direct: 0.0%  skip:99.6%  L0:44.5% L1:55.3% BI: 0.2%
[libx264 @ 000001a75409c080] 8x8 transform intra:27.4% inter:25.2%
[libx264 @ 000001a75409c080] coded y,uvDC,uvAC intra: 8.3% 15.1% 13.0% inter: 0.0% 0.1% 0.0%
[libx264 @ 000001a75409c080] i16 v,h,dc,p: 63% 35%  2%  0%
[libx264 @ 000001a75409c080] i8 v,h,dc,ddl,ddr,vr,hd,vl,hu: 51%  8% 40%  0%  0%  0%  0%  0%  0%
[libx264 @ 000001a75409c080] i4 v,h,dc,ddl,ddr,vr,hd,vl,hu: 39% 21% 19%  2%  4%  5%  3%  4%  3%
[libx264 @ 000001a75409c080] i8c dc,h,v,p: 60% 30%  9%  1%
[libx264 @ 000001a75409c080] Weighted P-Frames: Y:0.0% UV:0.0%
[libx264 @ 000001a75409c080] ref P L0: 53.4% 46.6%
[libx264 @ 000001a75409c080] ref B L0: 76.0% 24.0%
[libx264 @ 000001a75409c080] ref B L1: 97.3%  2.7%
[libx264 @ 000001a75409c080] kb/s:181.26

